<svg width="40" height="20" viewBox="0 0 40 20" fill="none" xmlns="http://www.w3.org/2000/svg">
<path d="M38.325 8.33332H5.67502L11.175 2.84998C11.4889 2.53614 11.6652 2.11049 11.6652 1.66665C11.6652 1.22281 11.4889 0.797156 11.175 0.483317C10.8612 0.169477 10.4355 -0.00683594 9.99169 -0.00683594C9.54785 -0.00683594 9.1222 0.169477 8.80836 0.483317L0.475023 8.81665C0.323288 8.97516 0.204347 9.16207 0.125023 9.36665C-0.0416742 9.77242 -0.0416742 10.2275 0.125023 10.6333C0.204347 10.8379 0.323288 11.0248 0.475023 11.1833L8.80836 19.5166C8.96329 19.6729 9.14763 19.7969 9.35073 19.8815C9.55383 19.9661 9.77167 20.0096 9.99169 20.0096C10.2117 20.0096 10.4296 19.9661 10.6327 19.8815C10.8358 19.7969 11.0201 19.6729 11.175 19.5166C11.3312 19.3617 11.4552 19.1774 11.5398 18.9743C11.6245 18.7712 11.668 18.5533 11.668 18.3333C11.668 18.1133 11.6245 17.8955 11.5398 17.6924C11.4552 17.4893 11.3312 17.3049 11.175 17.15L5.67502 11.6667H38.325C38.7671 11.6667 39.191 11.4911 39.5035 11.1785C39.8161 10.8659 39.9917 10.442 39.9917 9.99998C39.9917 9.55796 39.8161 9.13403 39.5035 8.82147C39.191 8.50891 38.7671 8.33332 38.325 8.33332Z" fill="#3861FB"/>
</svg>
