<svg width="32" height="32" viewBox="0 0 32 32" fill="none" xmlns="http://www.w3.org/2000/svg">
<path d="M25.9 4H4.59995C3.71632 4 3 4.71632 3 5.59995V26.4C3 27.2837 3.71632 28 4.59995 28H25.9C26.7837 28 27.5 27.2837 27.5 26.4V5.59995C27.5 4.71632 26.7837 4 25.9 4Z" stroke="current" stroke-linecap="round" stroke-linejoin="round"/>
<path d="M25 21.5907V23.9C25 24.3243 24.8314 24.7313 24.5314 25.0314C24.2313 25.3314 23.8243 25.5 23.4 25.5H7.1C6.67565 25.5 6.26869 25.3314 5.96863 25.0314C5.66857 24.7313 5.5 24.3243 5.5 23.9V8.1C5.5 7.67565 5.66857 7.26869 5.96863 6.96863C6.26869 6.66857 6.67565 6.5 7.1 6.5H23.4C23.8243 6.5 24.2313 6.66857 24.5314 6.96863C24.8314 7.26869 25 7.67565 25 8.1V10.4365" stroke="current" stroke-linecap="round" stroke-linejoin="round"/>
<path d="M25 15.062V16.9274" stroke="current" stroke-linecap="round" stroke-linejoin="round"/>
<path d="M8.5 28.1074V29.4999H5V28.0959" stroke="current" stroke-linecap="round" stroke-linejoin="round"/>
<path d="M25.5 28.1411V29.5001H22V28.1411" stroke="current" stroke-linecap="round" stroke-linejoin="round"/>
<path d="M26 10.5H24V15H26V10.5Z" stroke="current" stroke-linecap="round" stroke-linejoin="round"/>
<path d="M26 17H24V21.5H26V17Z" stroke="current" stroke-linecap="round" stroke-linejoin="round"/>
<path d="M7.5 9C7.77614 9 8 8.77614 8 8.5C8 8.22386 7.77614 8 7.5 8C7.22386 8 7 8.22386 7 8.5C7 8.77614 7.22386 9 7.5 9Z" fill="current"/>
<path d="M7.5 24C7.77614 24 8 23.7761 8 23.5C8 23.2239 7.77614 23 7.5 23C7.22386 23 7 23.2239 7 23.5C7 23.7761 7.22386 24 7.5 24Z" fill="current"/>
<path d="M15.2891 10.7957C14.3002 10.7957 13.3335 11.0889 12.5112 11.6383C11.689 12.1877 11.0481 12.9686 10.6697 13.8822C10.2912 14.7959 10.1922 15.8012 10.3851 16.7711C10.5781 17.741 11.0543 18.6319 11.7535 19.3312C12.4528 20.0305 13.3437 20.5067 14.3136 20.6996C15.2835 20.8925 16.2889 20.7935 17.2025 20.4151C18.1161 20.0366 18.897 19.3958 19.4464 18.5735C19.9958 17.7513 20.2891 16.7846 20.2891 15.7957C20.2875 14.47 19.7603 13.1992 18.8229 12.2618C17.8856 11.3244 16.6147 10.7972 15.2891 10.7957ZM15.2891 12.7957C15.7359 12.7961 16.1769 12.8972 16.5793 13.0914L12.5848 17.0859C12.3652 16.6291 12.2651 16.124 12.2941 15.618C12.323 15.112 12.48 14.6216 12.7502 14.1929C13.0205 13.7641 13.3953 13.411 13.8393 13.1666C14.2834 12.9223 14.7822 12.7947 15.2891 12.7959V12.7957ZM15.2891 18.7957C14.8423 18.7951 14.4014 18.6941 13.9991 18.5L17.9936 14.5055C18.2132 14.9622 18.3132 15.4673 18.2843 15.9733C18.2553 16.4794 18.0984 16.9697 17.8281 17.3985C17.5578 17.8273 17.1831 18.1804 16.739 18.4247C16.2949 18.669 15.7961 18.7966 15.2893 18.7955L15.2891 18.7957Z" stroke="current" stroke-linecap="round" stroke-linejoin="round"/>
</svg>
