<svg width="32" height="32" viewBox="0 0 32 32" fill="none" xmlns="http://www.w3.org/2000/svg">
<path d="M15.9998 25.4701C19.207 25.551 22.4153 25.353 25.5882 24.8782C26.0999 24.761 26.5786 24.5298 26.9885 24.2019C27.3984 23.8739 27.729 23.4577 27.9557 22.9842C27.9557 22.9842 29.0211 20.7351 29.0211 16.0001C29.0211 11.2651 27.9557 9.01593 27.9557 9.01593C27.7104 8.55599 27.374 8.15084 26.9669 7.8252C26.5599 7.49957 26.0908 7.26028 25.5882 7.12193C22.4153 6.64716 19.207 6.44913 15.9998 6.53007C12.7925 6.44913 9.58434 6.64717 6.4114 7.12195C5.89968 7.23915 5.42103 7.47033 5.0111 7.79827C4.60118 8.12621 4.27056 8.54245 4.0439 9.01595C4.0439 9.01595 2.97852 11.2651 2.97852 16.0001C2.97852 20.7351 4.0439 22.9842 4.0439 22.9842C4.28919 23.4442 4.62562 23.8493 5.03267 24.1749C5.43971 24.5006 5.90883 24.7399 6.41141 24.8782C9.58435 25.353 12.7926 25.551 15.9998 25.4701V25.4701Z" stroke="white" stroke-linecap="round" stroke-linejoin="round"/>
<path d="M12.7832 19.2203V12.7796C12.7832 12.6413 12.8199 12.5055 12.8895 12.3861C12.9592 12.2666 13.0592 12.1678 13.1795 12.0997C13.2999 12.0316 13.4361 11.9966 13.5743 11.9984C13.7126 12.0001 13.8479 12.0385 13.9664 12.1096L19.3337 15.33C19.4494 15.3994 19.5451 15.4976 19.6116 15.615C19.6781 15.7324 19.713 15.865 19.713 15.9999C19.713 16.1348 19.6781 16.2675 19.6116 16.3849C19.5451 16.5023 19.4494 16.6005 19.3337 16.6699L13.9664 19.8902C13.8479 19.9614 13.7126 19.9998 13.5743 20.0015C13.4361 20.0032 13.2999 19.9683 13.1795 19.9002C13.0592 19.832 12.9592 19.7332 12.8895 19.6138C12.8199 19.4943 12.7832 19.3585 12.7832 19.2203V19.2203Z" stroke="white" stroke-linecap="round" stroke-linejoin="round"/>
</svg>
