<svg width="61" height="80" viewBox="0 0 61 80" fill="none" xmlns="http://www.w3.org/2000/svg">
<path d="M34.7617 17.9803C34.7617 17.9803 44.7743 27.4923 53.1182 27.3254C53.1182 27.3254 63.3811 2.46075 57.9576 0.958857C55.1207 0.291349 34.7617 17.9803 34.7617 17.9803Z" fill="#3861FB"/>
<path d="M35.1793 60.033C31.5915 60.033 26.0011 57.6133 21.7457 54.8598C19.1591 53.1911 14.8203 49.8535 14.4866 46.516C13.5688 36.7537 37.5156 12.1393 49.7811 3.54518C55.3714 -0.376431 57.2905 -0.209554 58.2083 0.207638C59.7102 0.958584 60.3777 2.79424 60.2109 5.9649C59.4599 19.3151 41.6875 58.0305 36.7647 59.6993C36.3475 59.9496 35.7634 60.033 35.1793 60.033ZM57.2071 1.70953C56.5396 1.70953 54.7874 2.12673 50.7823 4.96364C37.2653 14.3922 15.4878 38.0053 16.2388 46.3491C16.4057 48.2682 18.8254 50.9382 22.747 53.4414C27.8367 56.7789 34.0946 58.9483 36.3475 58.1974C39.5181 57.1127 57.8746 20.2329 58.709 5.9649C58.8759 3.62862 58.4587 2.21017 57.6243 1.79298C57.4574 1.79298 57.374 1.70953 57.2071 1.70953Z" fill="black"/>
<path d="M52.199 28.2425C41.352 28.2425 34.3431 18.8974 34.0928 18.5637C33.8425 18.2299 33.9259 17.6459 34.2597 17.3955C34.5934 17.1452 35.1775 17.2287 35.4278 17.5624C35.5113 17.6459 42.6035 27.0744 53.0333 26.5738C53.4505 26.5738 53.8677 26.9075 53.8677 27.3247C53.8677 27.8254 53.534 28.1591 53.1168 28.1591C52.783 28.2425 52.5327 28.2425 52.199 28.2425Z" fill="black"/>
<path d="M47.5272 69.8783C45.3578 69.8783 26.9179 60.6166 26.8345 60.4497C26.4173 60.1994 26.3338 59.6988 26.5842 59.2816C26.8345 58.8644 27.3351 58.781 27.7523 59.0313C29.0873 59.8657 45.4413 67.7089 47.4438 68.1261C48.1947 67.7089 50.7813 64.2045 51.6991 52.2728C52.5335 40.6748 49.196 38.6723 49.1126 38.6723C48.6954 38.5054 48.5285 38.0048 48.6954 37.5876C48.8622 37.1704 49.3629 37.0035 49.7801 37.1704C50.2807 37.3373 54.2857 39.5067 53.3679 52.4396C52.3666 65.5395 49.3629 69.5445 47.6941 69.7948C47.6107 69.8783 47.5272 69.8783 47.5272 69.8783Z" fill="black"/>
<path d="M17.99 56.6949C17.9066 56.6949 17.8232 56.6949 17.6563 56.6115C17.4894 56.528 1.30235 47.2663 0.71828 45.8479V45.7645C-0.0326665 44.0957 0.217652 42.1766 9.6462 33.9162C20.4098 24.5711 24.5817 27.6583 24.9989 27.9921C25.3326 28.3258 25.4161 28.8264 25.0823 29.1602C24.7486 29.494 24.2479 29.5774 23.9142 29.2436C23.8307 29.1602 20.2429 26.8239 10.7309 35.1678C1.38579 43.2613 1.96986 44.5963 2.22018 45.0969C3.47175 46.432 17.4894 54.6924 18.3238 55.1096C18.741 55.2764 18.9079 55.7771 18.741 56.1943C18.5741 56.528 18.2404 56.6949 17.99 56.6949Z" fill="black"/>
<path d="M24.9982 63.204C23.6632 63.204 16.9881 60.1168 16.9047 58.1977C16.8212 56.8627 18.9906 53.8589 19.9919 52.6073C20.2422 52.2736 20.8263 52.1902 21.16 52.4405C21.4938 52.6908 21.5772 53.2748 21.3269 53.6086C19.9085 55.4442 18.7403 57.4468 18.6569 58.0308C19.241 58.9487 23.9135 61.4518 24.9982 61.5353C25.4988 61.2015 26.667 59.1155 27.5014 57.0296C27.6682 56.6124 28.1689 56.3621 28.5861 56.5289C29.0033 56.6958 29.2536 57.1965 29.0867 57.6137C28.002 60.1168 26.5835 63.1206 24.9982 63.204C25.0817 63.204 25.0817 63.204 24.9982 63.204Z" fill="black"/>
<path d="M35.3454 45.1807C30.0054 45.1807 25.4997 41.3426 25.2494 36.4197C25.1659 33.9166 26.0837 31.5803 27.9194 29.7446C29.755 27.909 32.2582 26.8243 34.9282 26.7408C40.5186 26.4905 45.2746 30.4121 45.5249 35.5019C45.7752 40.5916 41.4364 44.9304 35.846 45.2642C35.6792 45.1807 35.5123 45.1807 35.3454 45.1807ZM35.5123 28.3262C35.3454 28.3262 35.1785 28.3262 35.0117 28.3262C32.7588 28.4096 30.5894 29.3274 29.0875 30.9128C27.5856 32.4147 26.8347 34.3337 26.9181 36.3363C27.085 40.5082 31.0901 43.6789 35.7626 43.512C40.4352 43.2617 44.1065 39.6738 43.8561 35.5019C43.7727 31.4134 40.018 28.3262 35.5123 28.3262Z" fill="black"/>
<path d="M35.5951 42.8448C33.676 42.8448 31.9238 42.2607 30.5054 41.0926C29.0035 39.841 28.0857 38.0888 28.0022 36.2532C27.8354 32.415 31.0895 29.0774 35.3448 28.8271C39.6002 28.6602 43.188 31.5806 43.3549 35.5022C43.5218 39.3404 40.2677 42.6779 36.0123 42.9282C35.8454 42.7614 35.762 42.8448 35.5951 42.8448ZM35.762 30.4125C35.6786 30.4125 35.5117 30.4125 35.4283 30.4125C32.0907 30.5793 29.5041 33.0825 29.671 36.0863C29.7544 37.5047 30.4219 38.8397 31.5901 39.7576C32.7582 40.7588 34.3436 41.2595 35.9289 41.176C39.2664 41.0091 41.853 38.506 41.6861 35.5022C41.6027 32.6653 38.9327 30.4125 35.762 30.4125Z" fill="black"/>
<path d="M22.6617 79.3074C22.5783 79.3074 22.4948 79.3074 22.4114 79.3074C21.2432 78.9736 21.2432 77.3049 21.4936 72.1317C21.4936 71.631 21.577 71.2138 21.577 70.7132C21.3267 71.1304 21.1598 71.4642 20.9095 71.7979C18.6567 75.803 17.9891 76.8877 17.0713 76.8877C16.7376 76.8877 16.4038 76.8042 16.2369 76.5539C15.7363 75.9698 15.9032 74.9686 16.3204 73.0495C16.4038 72.4654 16.6541 71.631 16.7376 71.047C16.5707 71.2973 16.4038 71.5476 16.3204 71.7145C15.8197 72.4654 15.4026 73.1329 14.8185 73.2998C14.4847 73.3832 14.0675 73.2998 13.8172 73.0495C13.3166 72.4654 13.5669 71.7979 14.4013 69.7954C14.5682 69.3782 14.735 68.8776 14.9854 68.4604C14.5682 68.7107 14.0675 69.0444 13.7338 69.2948C10.8969 71.1304 9.72874 71.7979 8.89435 71.2973C8.72748 71.2138 8.31029 70.8801 8.39372 70.1291C8.64404 68.1266 15.4026 60.8675 17.4885 58.6981C17.8223 58.3643 18.3229 58.3643 18.6567 58.6981C18.9904 59.0318 18.9904 59.5324 18.6567 59.8662C15.4026 63.2872 11.8981 67.2922 10.5631 69.2948C11.3141 68.8776 12.1485 68.2935 12.816 67.8763C15.0688 66.4578 15.9032 65.8738 16.5707 66.3744C17.2382 66.7916 17.0713 67.626 16.6541 68.961C16.9879 68.7941 17.3216 68.7941 17.7388 68.961C18.9904 69.3782 18.5732 71.1304 18.0726 73.3832C18.0726 73.5501 17.9891 73.717 17.9891 73.8004C18.5732 72.8826 19.1573 71.7979 19.6579 70.9635C21.4101 67.8763 21.7439 67.2922 22.5783 67.3757C23.5795 67.5425 23.5795 68.2935 23.3292 72.2151C23.3292 72.382 23.3292 72.5489 23.3292 72.7992C23.7464 69.8788 24.0802 66.0407 24.4139 62.3694C24.4139 61.8687 24.8311 61.535 25.3317 61.6184C25.8324 61.6184 26.1661 62.0356 26.0827 62.5362C24.8311 78.2227 23.8298 78.8902 23.4961 79.1405C23.0789 79.2239 22.8286 79.3074 22.6617 79.3074Z" fill="black"/>
<path d="M38.8488 55.1102C38.7653 55.1102 38.7653 55.1102 38.6819 55.1102C22.8286 52.5236 16.0701 41.76 15.8197 41.3429C15.5694 40.9257 15.7363 40.425 16.0701 40.1747C16.4873 39.9244 16.9879 40.0913 17.2382 40.425C17.3216 40.5085 23.9133 50.9383 38.9322 53.4414C39.3494 53.5249 39.6831 53.9421 39.5997 54.3593C39.6831 54.7765 39.266 55.1102 38.8488 55.1102Z" fill="black"/>
<path d="M50.1965 28.3261C50.1131 28.3261 50.1131 28.3261 50.0297 28.3261C49.7793 28.2427 49.6959 27.9924 49.7793 27.8255C49.8628 27.5752 57.706 6.13151 57.4557 1.1252C57.4557 0.874885 57.6226 0.708008 57.8729 0.708008C58.1232 0.708008 58.2901 0.874885 58.2901 1.1252C58.5404 6.29839 50.864 27.2414 50.5303 28.1593C50.4469 28.1593 50.3634 28.3261 50.1965 28.3261Z" fill="black"/>
<path d="M45.1903 68.4604C45.1069 68.4604 45.0235 68.4604 44.94 68.3769C44.7732 68.2101 44.6897 67.9597 44.8566 67.7928C44.8566 67.7928 47.4432 63.7878 49.3623 55.0268C51.1979 46.3492 47.8604 41.8435 47.8604 41.8435C47.6935 41.6766 47.7769 41.4263 47.9438 41.2594C48.1107 41.0925 48.361 41.176 48.5279 41.3429C48.6948 41.5097 52.1157 46.0989 50.1966 55.1936C48.2776 64.205 45.691 68.1266 45.6075 68.2935C45.5241 68.3769 45.3572 68.4604 45.1903 68.4604Z" fill="black"/>
<path d="M3.72159 47.2672C3.63815 47.2672 3.55471 47.2672 3.47127 47.1837C3.3044 47.0168 3.22096 46.7665 3.38784 46.5996C5.05661 44.0965 15.4864 30.8298 22.3284 31.6642C22.5787 31.6642 22.7456 31.9145 22.6621 32.1648C22.6621 32.4151 22.4118 32.582 22.1615 32.4985C15.7367 31.7476 5.39036 45.0143 3.9719 47.1003C3.9719 47.1837 3.80502 47.2672 3.72159 47.2672Z" fill="black"/>
<path d="M16.8215 50.0205C16.5712 50.0205 16.4043 49.8536 16.4043 49.6033C16.4043 45.4314 18.2399 43.5123 18.3234 43.4289C18.4903 43.262 18.7406 43.262 18.9075 43.4289C19.0743 43.5957 19.0743 43.8461 18.9075 44.0129C18.9075 44.0129 17.2387 45.8486 17.2387 49.6033C17.2387 49.7702 16.9884 50.0205 16.8215 50.0205Z" fill="black"/>
<path d="M19.1589 60.1164C19.0755 60.1164 18.992 60.1164 18.9086 60.033C18.7417 59.9496 18.6583 59.6158 18.7417 59.4489L21.9958 54.1923C22.0793 54.0254 22.413 53.942 22.5799 54.0254C22.7468 54.1088 22.8302 54.4426 22.7468 54.6095L19.4927 59.8661C19.4092 60.033 19.3258 60.1164 19.1589 60.1164Z" fill="black"/>
</svg>
