<svg width="96" height="47" viewBox="0 0 96 47" fill="none" xmlns="http://www.w3.org/2000/svg">
<path d="M1 7.20469C15.2487 16.5413 32.3014 19.4426 49.2972 16.9608C51.2348 16.6778 53.2383 16.2806 55.2347 15.7611M55.2347 15.7611C59.2694 14.7111 63.2752 13.1613 66.6501 11.0447C68.9376 9.61 72.7776 6.4007 72.145 3.47657C71.0946 -1.37857 63.6764 2.15819 61.0787 3.57004C57.4338 5.55111 54.8816 11.1849 55.2347 15.7611ZM55.2347 15.7611C55.3365 17.0802 55.6797 18.3114 56.3077 19.3419C61.5176 27.8914 73.506 33.5532 82.1681 38.0991C85.6267 39.9141 89.5608 41.0805 92.8879 43.0174C94.1788 43.7689 92.0236 40.3684 91.8 39.664C90.4804 35.5074 90.3018 35.4664 92.4662 39.7118C92.7659 40.2997 95.1876 44.2528 94.9884 44.5802C94.8493 44.8087 86.1281 45.6454 85.1622 46" stroke="#3861FB" stroke-width="2" stroke-linecap="round"/>
</svg>
