<svg width="41" height="40" viewBox="0 0 41 40" fill="none" xmlns="http://www.w3.org/2000/svg">
<rect x="0.5" width="40" height="40" rx="20" fill="white"/>
<path d="M26.9333 19.6867C26.8937 19.5844 26.8342 19.491 26.7583 19.4117L22.5917 15.2451C22.514 15.1674 22.4217 15.1057 22.3202 15.0637C22.2187 15.0216 22.1099 15 22 15C21.7781 15 21.5653 15.0882 21.4083 15.2451C21.3306 15.3228 21.269 15.415 21.227 15.5165C21.1849 15.6181 21.1633 15.7269 21.1633 15.8367C21.1633 16.0587 21.2514 16.2715 21.4083 16.4284L24.1583 19.1701H15.3333C15.1123 19.1701 14.9004 19.2579 14.7441 19.4142C14.5878 19.5704 14.5 19.7824 14.5 20.0034C14.5 20.2244 14.5878 20.4364 14.7441 20.5927C14.9004 20.7489 15.1123 20.8367 15.3333 20.8367H24.1583L21.4083 23.5784C21.3302 23.6559 21.2682 23.748 21.2259 23.8496C21.1836 23.9511 21.1618 24.0601 21.1618 24.1701C21.1618 24.2801 21.1836 24.389 21.2259 24.4906C21.2682 24.5921 21.3302 24.6843 21.4083 24.7617C21.4858 24.8398 21.578 24.9018 21.6795 24.9442C21.7811 24.9865 21.89 25.0082 22 25.0082C22.11 25.0082 22.2189 24.9865 22.3205 24.9442C22.422 24.9018 22.5142 24.8398 22.5917 24.7617L26.7583 20.5951C26.8342 20.5158 26.8937 20.4224 26.9333 20.3201C27.0167 20.1172 27.0167 19.8896 26.9333 19.6867Z" fill="#3861FB"/>
</svg>
