<svg width="148" height="74" viewBox="0 0 148 74" fill="none" xmlns="http://www.w3.org/2000/svg">
<path d="M2 11.6517C23.8277 26.1753 49.951 30.6884 75.9872 26.8278C78.9555 26.3877 82.0247 25.7699 85.083 24.9617M85.083 24.9617C91.2638 23.3284 97.4002 20.9176 102.57 17.625C106.075 15.3933 111.957 10.4011 110.988 5.85245C109.379 -1.7 98.015 3.80162 94.0355 5.99784C88.4517 9.0795 84.542 17.8431 85.083 24.9617ZM85.083 24.9617C85.2389 27.0136 85.7646 28.9288 86.7267 30.5319C94.7078 43.831 113.073 52.6383 126.343 59.7097C131.641 62.5331 137.668 64.3474 142.764 67.3604C144.742 68.5294 141.44 63.2398 141.098 62.144C139.076 55.6782 138.803 55.6144 142.118 62.2184C142.578 63.1329 146.287 69.2821 145.982 69.7914C145.769 70.1468 132.409 71.4484 130.929 72" stroke="#3861FB" stroke-width="3" stroke-linecap="round"/>
</svg>
