<svg width="13" height="10" viewBox="0 0 13 10" fill="none" xmlns="http://www.w3.org/2000/svg">
<path d="M12.9333 4.68674C12.8937 4.58445 12.8342 4.491 12.7583 4.41174L8.59167 0.245076C8.51397 0.167378 8.42173 0.105744 8.32021 0.0636935C8.21869 0.0216432 8.10988 0 8 0C7.77808 0 7.56525 0.0881566 7.40833 0.245076C7.33064 0.322775 7.269 0.415017 7.22695 0.516535C7.1849 0.618054 7.16326 0.72686 7.16326 0.836743C7.16326 1.05866 7.25141 1.27149 7.40833 1.42841L10.1583 4.17008H1.33333C1.11232 4.17008 0.900358 4.25787 0.744078 4.41415C0.587798 4.57043 0.5 4.7824 0.5 5.00341C0.5 5.22442 0.587798 5.43638 0.744078 5.59267C0.900358 5.74895 1.11232 5.83674 1.33333 5.83674H10.1583L7.40833 8.57841C7.33023 8.65588 7.26823 8.74804 7.22593 8.84959C7.18362 8.95114 7.16183 9.06007 7.16183 9.17008C7.16183 9.28009 7.18362 9.38901 7.22593 9.49056C7.26823 9.59211 7.33023 9.68427 7.40833 9.76174C7.4858 9.83985 7.57797 9.90184 7.67952 9.94415C7.78107 9.98646 7.88999 10.0082 8 10.0082C8.11001 10.0082 8.21893 9.98646 8.32048 9.94415C8.42203 9.90184 8.5142 9.83985 8.59167 9.76174L12.7583 5.59508C12.8342 5.51582 12.8937 5.42237 12.9333 5.32008C13.0167 5.11719 13.0167 4.88963 12.9333 4.68674Z" fill="#3861FB"/>
</svg>
