<svg width="81" height="40" viewBox="0 0 81 40" fill="none" xmlns="http://www.w3.org/2000/svg">
<path d="M1 6.23951C12.9749 14.1237 27.3065 16.5737 41.5902 14.478C43.2186 14.239 44.9024 13.9036 46.5802 13.4649M46.5802 13.4649C49.9711 12.5783 53.3376 11.2695 56.174 9.48215C58.0965 8.27067 61.3237 5.5606 60.792 3.09133C59.9093 -1.00857 53.6749 1.97802 51.4917 3.17025C48.4284 4.84316 46.2834 9.60056 46.5802 13.4649ZM46.5802 13.4649C46.6658 14.5788 46.9542 15.6185 47.482 16.4887C51.8605 23.7083 61.9359 28.4893 69.2158 32.3281C72.1224 33.8608 75.4287 34.8457 78.2249 36.4813C79.3098 37.1159 77.4986 34.2445 77.3106 33.6496C76.2016 30.1396 76.0515 30.105 77.8706 33.69C78.1224 34.1864 80.1577 37.5246 79.9902 37.801C79.8733 37.994 72.5438 38.7005 71.732 39" stroke="#3861FB" stroke-width="2" stroke-linecap="round"/>
</svg>
