<svg width="20" height="21" viewBox="0 0 20 21" fill="none" xmlns="http://www.w3.org/2000/svg">
<path d="M11.9993 16.9999C12.2645 16.9999 12.5189 16.8945 12.7064 16.707C12.8939 16.5195 12.9993 16.2651 12.9993 15.9999V13.9999C12.9993 13.7347 12.8939 13.4803 12.7064 13.2928C12.5189 13.1053 12.2645 12.9999 11.9993 12.9999C11.7341 12.9999 11.4797 13.1053 11.2922 13.2928C11.1047 13.4803 10.9993 13.7347 10.9993 13.9999V15.9999C10.9993 16.2651 11.1047 16.5195 11.2922 16.707C11.4797 16.8945 11.7341 16.9999 11.9993 16.9999ZM7.9993 16.9999C8.26452 16.9999 8.51888 16.8945 8.70641 16.707C8.89395 16.5195 8.9993 16.2651 8.9993 15.9999V13.9999C8.9993 13.7347 8.89395 13.4803 8.70641 13.2928C8.51888 13.1053 8.26452 12.9999 7.9993 12.9999C7.73409 12.9999 7.47973 13.1053 7.2922 13.2928C7.10466 13.4803 6.9993 13.7347 6.9993 13.9999V15.9999C6.9993 16.2651 7.10466 16.5195 7.2922 16.707C7.47973 16.8945 7.73409 16.9999 7.9993 16.9999ZM16.9993 4.99991H15.6193L13.8893 1.5499C13.8364 1.42296 13.758 1.30828 13.6588 1.21303C13.5596 1.11779 13.4418 1.04402 13.3128 0.996347C13.1839 0.948672 13.0464 0.928113 12.9091 0.935953C12.7718 0.943793 12.6376 0.979865 12.5149 1.04191C12.3922 1.10396 12.2836 1.19065 12.1959 1.29657C12.1082 1.40249 12.0433 1.52536 12.0052 1.6575C11.9672 1.78964 11.9568 1.92821 11.9747 2.06455C11.9926 2.20089 12.0384 2.33208 12.1093 2.44991L13.3793 4.99991H6.6193L7.8893 2.44991C7.98637 2.21681 7.99166 1.95563 7.90413 1.71879C7.81659 1.48196 7.6427 1.287 7.41737 1.17307C7.19204 1.05914 6.93195 1.03467 6.68932 1.10456C6.44669 1.17446 6.23949 1.33356 6.1093 1.5499L4.3793 4.99991H2.9993C2.29249 5.01066 1.61218 5.27065 1.07835 5.73404C0.544527 6.19742 0.191478 6.83443 0.0814749 7.53271C-0.0285283 8.23099 0.11158 8.94569 0.47709 9.55075C0.8426 10.1558 1.41003 10.6124 2.0793 10.8399L2.8193 18.2999C2.89393 19.0425 3.24265 19.7306 3.79738 20.2298C4.3521 20.7291 5.073 21.0036 5.8193 20.9999H14.1993C14.9456 21.0036 15.6665 20.7291 16.2212 20.2298C16.776 19.7306 17.1247 19.0425 17.1993 18.2999L17.9393 10.8399C18.61 10.6117 19.1784 10.1535 19.5436 9.54639C19.9089 8.9393 20.0475 8.22254 19.9349 7.52305C19.8223 6.82356 19.4658 6.18649 18.9285 5.72468C18.3912 5.26287 17.7078 5.00612 16.9993 4.99991ZM15.1893 18.0999C15.1644 18.3474 15.0482 18.5768 14.8633 18.7432C14.6784 18.9096 14.4381 19.0012 14.1893 18.9999H5.8093C5.56054 19.0012 5.32024 18.9096 5.13533 18.7432C4.95042 18.5768 4.83418 18.3474 4.8093 18.0999L4.0993 10.9999H15.8993L15.1893 18.0999ZM16.9993 8.9999H2.9993C2.73409 8.9999 2.47973 8.89455 2.2922 8.70701C2.10466 8.51948 1.9993 8.26512 1.9993 7.99991C1.9993 7.73469 2.10466 7.48033 2.2922 7.2928C2.47973 7.10526 2.73409 6.99991 2.9993 6.99991H16.9993C17.2645 6.99991 17.5189 7.10526 17.7064 7.2928C17.8939 7.48033 17.9993 7.73469 17.9993 7.99991C17.9993 8.26512 17.8939 8.51948 17.7064 8.70701C17.5189 8.89455 17.2645 8.9999 16.9993 8.9999Z" fill="current"/>
</svg>
