<svg width="21" height="21" viewBox="0 0 21 21" fill="none" xmlns="http://www.w3.org/2000/svg">
<path d="M20.7094 19.29L16.9994 15.61C18.4395 13.8144 19.1369 11.5353 18.9482 9.2413C18.7595 6.94731 17.6991 4.81279 15.9849 3.27665C14.2708 1.74051 12.0332 0.919514 9.73234 0.982474C7.43145 1.04543 5.24214 1.98757 3.61456 3.61515C1.98698 5.24273 1.04485 7.43204 0.981887 9.73293C0.918926 12.0338 1.73992 14.2714 3.27606 15.9855C4.8122 17.6997 6.94672 18.7601 9.24072 18.9488C11.5347 19.1375 13.8138 18.4401 15.6094 17L19.2894 20.68C19.3824 20.7737 19.493 20.8481 19.6148 20.8989C19.7367 20.9497 19.8674 20.9758 19.9994 20.9758C20.1314 20.9758 20.2621 20.9497 20.384 20.8989C20.5059 20.8481 20.6165 20.7737 20.7094 20.68C20.8897 20.4935 20.9904 20.2443 20.9904 19.985C20.9904 19.7257 20.8897 19.4765 20.7094 19.29ZM9.99942 17C8.61495 17 7.26157 16.5895 6.11042 15.8203C4.95928 15.0511 4.06207 13.9579 3.53226 12.6788C3.00245 11.3997 2.86382 9.99224 3.13392 8.63437C3.40402 7.2765 4.0707 6.02922 5.04967 5.05026C6.02864 4.07129 7.27592 3.4046 8.63378 3.13451C9.99165 2.86441 11.3991 3.00303 12.6782 3.53285C13.9573 4.06266 15.0505 4.95987 15.8197 6.11101C16.5889 7.26216 16.9994 8.61553 16.9994 10C16.9994 11.8565 16.2619 13.637 14.9492 14.9498C13.6364 16.2625 11.8559 17 9.99942 17Z" fill="current"/>
</svg>
