<svg width="16" height="16" viewBox="0 0 16 16" fill="none" xmlns="http://www.w3.org/2000/svg">
<path d="M1.6459 15.7977C1.96032 15.928 2.30509 16 2.66667 16H4.66667C4.66667 15.6318 4.36819 15.3333 4 15.3333H2.66667C2.39426 15.3333 2.13616 15.2792 1.90127 15.1818C1.58732 15.0516 1.23082 15.1791 1.06691 15.467C1.15598 15.5339 1.24938 15.5954 1.34661 15.6509C1.44278 15.7058 1.54271 15.7549 1.6459 15.7977Z" fill="white"/>
<path d="M9.33333 15.3333C9.70152 15.3333 10 15.6318 10 16H6C6 15.6318 6.29848 15.3333 6.66667 15.3333H9.33333Z" fill="white"/>
<path d="M14.0987 15.1818C14.4127 15.0516 14.7692 15.1791 14.9331 15.467C14.844 15.5339 14.7506 15.5954 14.6534 15.6509C14.5572 15.7058 14.4573 15.7549 14.3541 15.7977C14.0397 15.928 13.6949 16 13.3333 16H11.3333C11.3333 15.6318 11.6318 15.3333 12 15.3333H13.3333C13.6057 15.3333 13.8638 15.2792 14.0987 15.1818Z" fill="white"/>
<path d="M15.3333 12C15.3333 11.6318 15.6318 11.3333 16 11.3333V13.3333C16 13.6949 15.928 14.0397 15.7977 14.3541C15.7549 14.4573 15.7058 14.5572 15.6509 14.6534C15.5954 14.7506 15.5339 14.844 15.467 14.9331C15.1791 14.7692 15.0516 14.4127 15.1818 14.0987C15.2792 13.8638 15.3333 13.6057 15.3333 13.3333V12Z" fill="white"/>
<path d="M15.3333 6.66667C15.3333 6.29848 15.6318 6 16 6V10C15.6318 10 15.3333 9.70152 15.3333 9.33333V6.66667Z" fill="white"/>
<path d="M15.1818 1.90127C15.0516 1.58732 15.1791 1.23082 15.467 1.06691C15.5339 1.15598 15.5954 1.24938 15.6509 1.34661C15.7058 1.44278 15.7549 1.54271 15.7977 1.6459C15.928 1.96032 16 2.30509 16 2.66667V4.66667C15.6318 4.66667 15.3333 4.36819 15.3333 4V2.66667C15.3333 2.39426 15.2792 2.13616 15.1818 1.90127Z" fill="white"/>
<path d="M12 0.666667C11.6318 0.666667 11.3333 0.36819 11.3333 0H13.3333C13.6949 0 14.0397 0.0719633 14.3541 0.202348C14.4573 0.24514 14.5572 0.294226 14.6534 0.349125C14.7506 0.404626 14.844 0.466071 14.9331 0.532962C14.7692 0.820858 14.4127 0.948355 14.0987 0.818165C13.8638 0.72076 13.6057 0.666667 13.3333 0.666667H12Z" fill="white"/>
<path d="M6.66667 0.666667C6.29848 0.666667 6 0.36819 6 0H10C10 0.36819 9.70152 0.666667 9.33333 0.666667H6.66667Z" fill="white"/>
<path d="M4 0.666667C4.36819 0.666667 4.66667 0.36819 4.66667 0H2.66667C2.30509 0 1.96032 0.0719631 1.6459 0.202348C1.54271 0.24514 1.44278 0.294225 1.34661 0.349124C1.24938 0.404625 1.15598 0.466069 1.0669 0.532959C1.23082 0.820857 1.58732 0.948355 1.90127 0.818165C2.13616 0.72076 2.39426 0.666667 2.66667 0.666667H4Z" fill="white"/>
<path d="M0.666667 4C0.666667 4.36819 0.36819 4.66667 0 4.66667V2.66667C0 2.30509 0.0719631 1.96032 0.202348 1.6459C0.24514 1.54271 0.294225 1.44278 0.349125 1.34661C0.404626 1.24938 0.466069 1.15598 0.53296 1.0669C0.820858 1.23082 0.948355 1.58732 0.818165 1.90127C0.72076 2.13616 0.666667 2.39426 0.666667 2.66667V4Z" fill="white"/>
<path d="M0.666667 9.33333C0.666667 9.70152 0.36819 10 0 10V6C0.36819 6 0.666667 6.29848 0.666667 6.66667V9.33333Z" fill="white"/>
<path d="M0.818165 14.0987C0.948355 14.4127 0.820858 14.7692 0.532962 14.9331C0.466071 14.844 0.404626 14.7506 0.349125 14.6534C0.294226 14.5572 0.24514 14.4573 0.202348 14.3541C0.0719631 14.0397 0 13.6949 0 13.3333V11.3333C0.36819 11.3333 0.666667 11.6318 0.666667 12V13.3333C0.666667 13.6057 0.72076 13.8638 0.818165 14.0987Z" fill="white"/>
<path d="M1.77403 13.7662C1.6439 13.8964 1.64398 14.1074 1.7742 14.2376C1.90442 14.3677 2.11547 14.3676 2.2456 14.2374L3.24497 13.2373C3.3751 13.1071 3.37502 12.896 3.2448 12.7659C3.11458 12.6358 2.90353 12.6359 2.7734 12.7661L1.77403 13.7662Z" fill="white"/>
<path d="M4.77213 10.7659C4.64201 10.8961 4.64208 11.1072 4.7723 11.2373C4.90252 11.3674 5.11358 11.3674 5.24371 11.2371L7.24244 9.23698C7.37257 9.10676 7.3725 8.8957 7.24227 8.76557C7.11205 8.63544 6.901 8.63552 6.77087 8.76574L4.77213 10.7659Z" fill="white"/>
<path d="M8.76961 6.76557C8.63948 6.89579 8.63955 7.10685 8.76978 7.23697C8.9 7.3671 9.11105 7.36703 9.24118 7.23681L11.2399 5.23664C11.37 5.10641 11.37 4.89536 11.2397 4.76523C11.1095 4.6351 10.8985 4.63518 10.7683 4.7654L8.76961 6.76557Z" fill="white"/>
<path d="M12.7671 2.76523C12.637 2.89545 12.637 3.10651 12.7672 3.23663C12.8975 3.36676 13.1085 3.36669 13.2387 3.23646L14.238 2.23638C14.3681 2.10616 14.3681 1.8951 14.2379 1.76497C14.1076 1.63485 13.8966 1.63492 13.7664 1.76514L12.7671 2.76523Z" fill="white"/>
</svg>
