<svg width="40" height="20" viewBox="0 0 40 20" fill="none" xmlns="http://www.w3.org/2000/svg">
<path d="M39.8667 9.36665C39.7873 9.16207 39.6684 8.97516 39.5167 8.81665L31.1833 0.483317C31.0279 0.327919 30.8435 0.204652 30.6404 0.120551C30.4374 0.0364506 30.2198 -0.00683594 30 -0.00683594C29.5562 -0.00683594 29.1305 0.169477 28.8167 0.483317C28.6613 0.638714 28.538 0.823198 28.4539 1.02623C28.3698 1.22927 28.3265 1.44689 28.3265 1.66665C28.3265 2.11049 28.5028 2.53614 28.8167 2.84998L34.3167 8.33332H1.66667C1.22464 8.33332 0.800716 8.50891 0.488156 8.82147C0.175595 9.13403 0 9.55796 0 9.99998C0 10.442 0.175595 10.8659 0.488156 11.1785C0.800716 11.4911 1.22464 11.6667 1.66667 11.6667H34.3167L28.8167 17.15C28.6605 17.3049 28.5365 17.4893 28.4519 17.6924C28.3672 17.8955 28.3237 18.1133 28.3237 18.3333C28.3237 18.5533 28.3672 18.7712 28.4519 18.9743C28.5365 19.1774 28.6605 19.3617 28.8167 19.5166C28.9716 19.6729 29.1559 19.7969 29.359 19.8815C29.5621 19.9661 29.78 20.0096 30 20.0096C30.22 20.0096 30.4379 19.9661 30.641 19.8815C30.8441 19.7969 31.0284 19.6729 31.1833 19.5166L39.5167 11.1833C39.6684 11.0248 39.7873 10.8379 39.8667 10.6333C40.0334 10.2275 40.0334 9.77242 39.8667 9.36665Z" fill="#3861FB"/>
</svg>
